Coordinates
version=1
nRows=29
nColumns=24
inDegrees=yes

Units are S.I. units (second, meters, Newtons, ...)
Angles are in degrees.

endheader
time	pelvis_tilt	pelvis_list	pelvis_rotation	pelvis_tx	pelvis_ty	pelvis_tz	hip_flexion_r	hip_adduction_r	hip_rotation_r	knee_angle_r	ankle_angle_r	subtalar_angle_r	mtp_angle_r	hip_flexion_l	hip_adduction_l	hip_rotation_l	knee_angle_l	ankle_angle_l	subtalar_angle_l	mtp_angle_l	lumbar_extension	lumbar_bending	lumbar_rotation
      2.88000000	     76.30830082	     -0.36562994	     -1.23997159	      0.57017113	      0.97248140	     -0.29817290	     -9.89601508	    -11.55680717	    -12.59428496	    -58.58937847	    -30.18765485	      0.00000000	      0.00000000	    -10.65710732	     -3.86072260	      6.28820102	    -37.52554298	    -41.56215172	      0.00000000	      0.00000000	      0.00000000	      0.00000000	      0.00000000
      2.89000000	     76.39983521	     -0.38329458	     -1.24431955	      0.57004303	      0.97235702	     -0.29804853	    -10.10146394	    -11.56743055	    -12.51717300	    -59.26484107	    -30.28934070	      0.00000000	      0.00000000	    -10.56609041	     -3.91820562	      6.17609247	    -37.08627945	    -40.92887620	      0.00000000	      0.00000000	      0.00000000	      0.00000000	      0.00000000
      2.90000000	     76.47604916	     -0.40238696	     -1.26707749	      0.56990107	      0.97219759	     -0.29788433	    -10.23015793	    -11.56067428	    -12.34217505	    -59.99762820	    -30.38927476	      0.00000000	      0.00000000	    -10.44166358	     -3.96194784	      6.13510805	    -36.61836055	    -40.26681021	      0.00000000	      0.00000000	      0.00000000	      0.00000000	      0.00000000
      2.91000000	     76.53027327	     -0.42381484	     -1.30644607	      0.56974030	      0.97200408	     -0.29768259	    -10.27942071	    -11.54030541	    -12.07669533	    -60.78889009	    -30.48294945	      0.00000000	      0.00000000	    -10.27921946	     -3.99080055	      6.16105499	    -36.14265323	    -39.58054148	      0.00000000	      0.00000000	      0.00000000	      0.00000000	      0.00000000
      2.92000000	     76.55995309	     -0.45018644	     -1.35826756	      0.56956753	      0.97176665	     -0.29747839	    -10.24988831	    -11.51307673	    -11.73637784	    -61.63069636	    -30.56799332	      0.00000000	      0.00000000	    -10.07759696	     -4.00593400	      6.24463782	    -35.67704273	    -38.87784659	      0.00000000	      0.00000000	      0.00000000	      0.00000000	      0.00000000
      2.93000000	     76.56629915	     -0.48311396	     -1.41776264	      0.56939812	      0.97149011	     -0.29733422	    -10.14597116	    -11.48691516	    -11.34369873	    -62.50676314	    -30.64413110	      0.00000000	      0.00000000	     -9.83915527	     -4.00931404	      6.37301767	    -35.23444107	    -38.17004577	      0.00000000	      0.00000000	      0.00000000	      0.00000000	      0.00000000
      2.94000000	     76.55172027	     -0.52117921	     -1.48041340	      0.56924093	      0.97119431	     -0.29728452	     -9.97780696	    -11.46905815	    -10.92470614	    -63.39606104	    -30.71188452	      0.00000000	      0.00000000	     -9.56919952	     -4.00217705	      6.53128901	    -34.82156586	    -37.47156207	      0.00000000	      0.00000000	      0.00000000	      0.00000000	      0.00000000
      2.95000000	     76.51871094	     -0.55989569	     -1.54203503	      0.56910734	      0.97089761	     -0.29729438	     -9.76078596	    -11.46574863	    -10.50494437	    -64.27631438	    -30.77065661	      0.00000000	      0.00000000	     -9.27568652	     -3.98487010	      6.70387208	    -34.43927706	    -36.79891319	      0.00000000	      0.00000000	      0.00000000	      0.00000000	      0.00000000
      2.96000000	     76.47019856	     -0.59340507	     -1.59938523	      0.56900640	      0.97060016	     -0.29730539	     -9.51299512	    -11.48261430	    -10.10605924	    -65.12655151	    -30.81734973	      0.00000000	      0.00000000	     -8.96902474	     -3.95769868	      6.87571211	    -34.08430589	    -36.16916638	      0.00000000	      0.00000000	      0.00000000	      0.00000000	      0.00000000
      2.97000000	     76.40996312	     -0.61678878	     -1.65090226	      0.56893221	      0.97030379	     -0.29729972	     -9.25220906	    -11.52456518	     -9.74381162	    -65.92850106	    -30.84621838	      0.00000000	      0.00000000	     -8.66161029	     -3.92146071	      7.03306084	    -33.75167686	    -35.59793909	      0.00000000	      0.00000000	      0.00000000	      0.00000000	      0.00000000
      2.98000000	     76.34262298	     -0.62789301	     -1.69663997	      0.56887704	      0.97003692	     -0.29730678	     -8.99339439	    -11.59517322	     -9.42741504	    -66.66654678	    -30.84997754	      0.00000000	      0.00000000	     -8.36676457	     -3.87731577	      7.16393547	    -33.43681874	    -35.09711978	      0.00000000	      0.00000000	      0.00000000	      0.00000000	      0.00000000
      2.99000000	     76.27299079	     -0.62789983	     -1.73757155	      0.56883688	      0.96983635	     -0.29735970	     -8.74772471	    -11.69603819	     -9.15986595	    -67.32711046	    -30.82176229	      0.00000000	      0.00000000	     -8.09679406	     -3.82683100	      7.25855695	    -33.13670994	    -34.67287103	      0.00000000	      0.00000000	      0.00000000	      0.00000000	      0.00000000
      3.00000000	     76.20498150	     -0.62024706	     -1.77495508	      0.56880132	      0.96970527	     -0.29745285	     -8.52280771	    -11.82611746	     -8.93922116	    -67.89851282	    -30.75727569	      0.00000000	      0.00000000	     -7.86119783	     -3.77259210	      7.30987009	    -32.85061318	    -34.32483606	      0.00000000	      0.00000000	      0.00000000	      0.00000000	      0.00000000
      3.01000000	     76.14107727	     -0.60866331	     -1.81031842	      0.56876294	      0.96960783	     -0.29755429	     -8.32313815	    -11.98089093	     -8.76054094	    -68.37141900	    -30.65630922	      0.00000000	      0.00000000	     -7.66576620	     -3.71849073	      7.31400278	    -32.58095185	    -34.04693443	      0.00000000	      0.00000000	      0.00000000	      0.00000000	      0.00000000
      3.02000000	     76.08265679	     -0.59600260	     -1.84566877	      0.56873009	      0.96951492	     -0.29764720	     -8.15072941	    -12.15213935	     -8.61744615	    -68.73956390	    -30.52305683	      0.00000000	      0.00000000	     -7.51220699	     -3.66897826	      7.27052641	    -32.33406549	    -33.82934306	      0.00000000	      0.00000000	      0.00000000	      0.00000000	      0.00000000
      3.03000000	     76.02998748	     -0.58463953	     -1.88298797	      0.56871092	      0.96943110	     -0.29773028	     -8.00611961	    -12.32903220	     -8.50255534	    -69.00047638	    -30.36521461	      0.00000000	      0.00000000	     -7.39854955	     -3.62767587	      7.18243877	    -32.12046412	    -33.66095205	      0.00000000	      0.00000000	      0.00000000	      0.00000000	      0.00000000
      3.04000000	     75.98214692	     -0.57727989	     -1.92333344	      0.56869795	      0.96937297	     -0.29778846	     -7.88893334	    -12.50002824	     -8.40741358	    -69.15554336	    -30.19226984	      0.00000000	      0.00000000	     -7.32033275	     -3.59633977	      7.05592375	    -31.95417120	    -33.53157389	      0.00000000	      0.00000000	      0.00000000	      0.00000000	      0.00000000
      3.05000000	     75.93791259	     -0.57653280	     -1.96690037	      0.56868529	      0.96934098	     -0.29780109	     -7.79749522	    -12.65444956	     -8.32299694	    -69.20907664	    -30.01355730	      0.00000000	      0.00000000	     -7.27178541	     -3.57491554	      6.90006048	    -31.85088552	    -33.43340448	      0.00000000	      0.00000000	      0.00000000	      0.00000000	      0.00000000
      3.06000000	     75.89654934	     -0.58389191	     -2.01367038	      0.56868050	      0.96932297	     -0.29777163	     -7.72858581	    -12.78375207	     -8.24050081	    -69.16719787	    -29.83672996	      0.00000000	      0.00000000	     -7.24662172	     -3.56236606	      6.72641864	    -31.82526421	    -33.36160035	      0.00000000	      0.00000000	      0.00000000	      0.00000000	      0.00000000
      3.07000000	     75.85731254	     -0.59969103	     -2.06329208	      0.56868716	      0.96931526	     -0.29771892	     -7.67816570	    -12.88280753	     -8.15161765	    -69.03731977	    -29.66722202	      0.00000000	      0.00000000	     -7.23864353	     -3.55719015	      6.54820450	    -31.88803498	    -33.31411660	      0.00000000	      0.00000000	      0.00000000	      0.00000000	      0.00000000
      3.08000000	     75.81856213	     -0.62357284	     -2.11461886	      0.56869742	      0.96931793	     -0.29764978	     -7.64211654	    -12.95023680	     -8.04885287	    -68.82804701	    -29.50887507	      0.00000000	      0.00000000	     -7.24249279	     -3.55707328	      6.37889189	    -32.04372646	    -33.29109707	      0.00000000	      0.00000000	      0.00000000	      0.00000000	      0.00000000
      3.09000000	     75.77791612	     -0.65450187	     -2.16588755	      0.56870775	      0.96932019	     -0.29755791	     -7.61574044	    -12.98745400	     -7.92658457	    -68.54913154	    -29.36528158	      0.00000000	      0.00000000	     -7.25471325	     -3.55826916	      6.23076116	    -32.28965612	    -33.29416486	      0.00000000	      0.00000000	      0.00000000	      0.00000000	      0.00000000
      3.10000000	     75.73302657	     -0.69046019	     -2.21545892	      0.56872810	      0.96931141	     -0.29744333	     -7.59278283	    -12.99754018	     -7.78219924	    -68.21152414	    -29.24108035	      0.00000000	      0.00000000	     -7.27478248	     -3.55567382	      6.11385322	    -32.61641462	    -33.32591565	      0.00000000	      0.00000000	      0.00000000	      0.00000000	      0.00000000
      3.11000000	     75.68160769	     -0.72849422	     -2.26244156	      0.56877054	      0.96929005	     -0.29732430	     -7.56597397	    -12.98503951	     -7.61592677	    -67.82740565	    -29.14254465	      0.00000000	      0.00000000	     -7.30535097	     -3.54391530	      6.03553783	    -33.00958939	    -33.38981441	      0.00000000	      0.00000000	      0.00000000	      0.00000000	      0.00000000
      3.12000000	     75.62145164	     -0.76546400	     -2.30679769	      0.56884318	      0.96925407	     -0.29722728	     -7.52901297	    -12.95605723	     -7.42938916	    -67.40964279	    -29.07697899	      0.00000000	      0.00000000	     -7.35110189	     -3.51840321	      6.00036768	    -33.45207286	    -33.49051330	      0.00000000	      0.00000000	      0.00000000	      0.00000000	      0.00000000
      3.13000000	     75.55168867	     -0.79913594	     -2.34931145	      0.56895150	      0.96920602	     -0.29716065	     -7.47850483	    -12.91707629	     -7.22445706	    -66.97077841	    -29.05071156	      0.00000000	      0.00000000	     -7.41645987	     -3.47510999	      6.00977514	    -33.92616442	    -33.63435111	      0.00000000	      0.00000000	      0.00000000	      0.00000000	      0.00000000
      3.14000000	     75.47412995	     -0.82833099	     -2.39161514	      0.56909268	      0.96916527	     -0.29711116	     -7.41481511	    -12.87272103	     -7.00342851	    -66.52218084	    -29.06595171	      0.00000000	      0.00000000	     -7.50397132	     -3.41030518	      6.06174418	    -34.41506630	    -33.82964212	      0.00000000	      0.00000000	      0.00000000	      0.00000000	      0.00000000
      3.15000000	     75.39294392	     -0.85178904	     -2.43537528	      0.56925757	      0.96914723	     -0.29707229	     -7.34126262	    -12.82480491	     -6.76995237	    -66.07325523	    -29.11731545	      0.00000000	      0.00000000	     -7.61530685	     -3.32209346	      6.15083687	    -34.90407155	    -34.08637071	      0.00000000	      0.00000000	      0.00000000	      0.00000000	      0.00000000
      3.16000000	     75.31307097	     -0.86781976	     -2.48058148	      0.56943798	      0.96914125	     -0.29705131	     -7.26284886	    -12.77400854	     -6.52970617	    -65.63071067	    -29.18942265	      0.00000000	      0.00000000	     -7.75322331	     -3.21233464	      6.26858518	    -35.38141187	    -34.41484953	      0.00000000	      0.00000000	      0.00000000	      0.00000000	      0.00000000
